<svg width="136" height="24" viewBox="0 0 136 24" fill="none" xmlns="http://www.w3.org/2000/svg">
<path d="M31.9892 4.00271H15.9946V3.75864C15.9946 2.7661 16.4013 1.8061 17.101 1.10644C17.8169 0.406778 18.7769 0 19.7858 0H31.9892V4.00271Z" fill="white"/>
<path d="M0 4.00272H15.9946V4.24678C15.9946 5.23933 15.5878 6.19933 14.8719 6.89899C14.1559 7.59865 13.1959 7.98916 12.1871 7.98916H0V4.00272Z" fill="white"/>
<path d="M31.9892 19.9973H0V24H31.9892V19.9973Z" fill="white"/>
<path d="M31.9892 11.9919H15.9946V11.7478C15.9946 10.7553 16.4013 9.79525 17.101 9.09559C17.8169 8.39593 18.7769 7.98915 19.7858 7.98915H31.9892V11.9919Z" fill="white"/>
<path d="M0 11.9919H15.9946V12.2359C15.9946 13.2285 15.5878 14.1885 14.8719 14.8881C14.1559 15.5878 13.1959 15.9783 12.1871 15.9783H0V11.9919Z" fill="white"/>
<path d="M42.7769 20.1925H45.608V18.4677C46.0148 19.623 47.4467 20.4528 49.3992 20.4528C51.0752 20.4528 52.4908 19.8671 53.6135 18.6793C54.7687 17.4752 55.3382 16.0108 55.3382 14.2535C55.3382 12.4799 54.7687 11.0318 53.6135 9.84401C52.4745 8.63994 51.0752 8.05418 49.3992 8.05418C47.4467 8.05418 45.9986 8.88401 45.608 10.0393V3.77486H42.7769V20.1925ZM49.025 17.882C48.0162 17.882 47.1375 17.524 46.4379 16.8406C45.7545 16.1572 45.3965 15.2786 45.3965 14.2535C45.3965 13.2122 45.7545 12.3498 46.4379 11.6664C47.1375 10.983 48.0162 10.625 49.025 10.625C50.0338 10.625 50.8636 10.983 51.5308 11.6664C52.2142 12.3498 52.5396 13.2284 52.5396 14.2535C52.5396 15.2949 52.2142 16.1572 51.5308 16.8406C50.8636 17.5403 50.0501 17.882 49.025 17.882Z" fill="white"/>
<path d="M66.9233 20.1925V17.524H59.8942L64.6616 12.5288C65.9633 11.1782 66.5979 9.7952 66.5979 8.39587C66.5979 7.02909 66.1098 5.87384 65.0847 4.91384C64.0921 3.95384 62.8881 3.44943 61.505 3.44943C60.0731 3.44943 58.8203 3.97011 57.8114 4.97892C56.8026 5.98774 56.2982 7.19181 56.2982 8.63994H58.983C58.983 7.90774 59.2108 7.28943 59.7152 6.8013C60.2033 6.31316 60.8053 6.05282 61.4887 6.05282C62.8067 6.05282 63.9131 7.09418 63.9131 8.41215C63.9131 9.19316 63.5877 9.92537 62.9043 10.6576L55.6148 18.2888V20.1925H66.9233Z" fill="white"/>
<path d="M71.7233 20.1925V13.3586C71.7233 11.7478 72.7158 10.6088 74.0338 10.6088C75.3843 10.6088 76.1491 11.6176 76.1491 13.2447V20.1925H78.9477V13.3586C78.9477 11.7478 79.9077 10.6088 81.2419 10.6088C82.5599 10.6088 83.3084 11.6176 83.3084 13.2447V17.1986C83.3084 19.265 84.2196 20.3064 86.0908 20.3064C86.6277 20.3064 87.0345 20.2576 87.3111 20.16V17.7844C87.1972 17.8006 87.0508 17.8332 86.9043 17.8332C86.2697 17.8332 86.107 17.5078 86.107 16.5803V12.8379C86.107 9.89284 84.6263 8.07047 82.0555 8.07047C80.2006 8.07047 78.9152 8.75385 78.2318 10.1369C77.646 8.75385 76.507 8.07047 74.8799 8.07047C73.3667 8.07047 72.1952 8.85148 71.6908 10.0067V8.31453H68.8921V20.1925H71.7233Z" fill="white"/>
<path d="M88.4176 14.3511C88.4176 16.206 89.0034 17.703 90.1586 18.8094C91.3139 19.9159 92.8434 20.4854 94.7145 20.4854C96.7159 20.4854 98.3756 19.7857 99.7098 18.3701L98.0176 16.7267C97.0901 17.6542 96.0325 18.0935 94.8122 18.0935C92.7132 18.0935 91.3301 16.8732 91.2325 14.9857H100.475C100.491 14.6766 100.523 14.3511 100.523 13.9932C100.523 12.301 99.9864 10.8854 98.88 9.73012C97.7898 8.57486 96.3742 8.00537 94.6657 8.00537C92.8434 8.00537 91.3627 8.57486 90.1911 9.73012C89.0359 10.8854 88.4501 12.3986 88.4501 14.2861V14.3511H88.4176ZM91.2976 12.9844C91.3627 12.2522 91.7206 11.6338 92.3552 11.1457C92.9898 10.6576 93.7708 10.3972 94.6495 10.3972C95.4793 10.3972 96.1627 10.6576 96.7484 11.1783C97.3342 11.6664 97.6434 12.2847 97.6434 13.0006H91.2976V12.9844Z" fill="white"/>
<path d="M103.111 16.499C103.111 19.1837 104.38 20.5342 106.951 20.5342C107.52 20.5342 108.008 20.4854 108.415 20.3878V17.8657C108.106 17.9308 107.78 17.9634 107.422 17.9634C106.381 17.9634 105.942 17.4915 105.942 16.1898V10.8854H108.561V8.31454H105.942V3.75861H103.111V8.31454H101.63V10.8854H103.111V16.499Z" fill="white"/>
<path d="M113.085 20.1925V13.9444C113.085 11.9918 114.338 10.7552 116.29 10.7552C116.713 10.7552 117.12 10.804 117.462 10.8691V8.13555C117.234 8.08674 116.941 8.07047 116.616 8.07047C114.94 8.07047 113.638 8.81894 113.085 10.0718V8.29826H110.286V20.1762H113.085V20.1925Z" fill="white"/>
<path d="M119.463 17.4101C119.463 19.4115 120.374 20.4203 122.197 20.4203C122.864 20.4203 123.336 20.3552 123.612 20.225V17.8494C123.498 17.8657 123.336 17.8983 123.124 17.8983C122.489 17.8983 122.294 17.5728 122.294 16.6454V8.29825H119.463V17.4101ZM120.879 6.93147C121.79 6.93147 122.555 6.19927 122.555 5.25554C122.555 4.31181 121.806 3.57961 120.879 3.57961C119.935 3.57961 119.186 4.31181 119.186 5.25554C119.186 6.19927 119.935 6.93147 120.879 6.93147Z" fill="white"/>
<path d="M131.016 7.94028C129.193 7.94028 127.664 8.55858 126.427 9.76265C125.174 10.9667 124.572 12.4474 124.572 14.2372C124.572 16.0271 125.191 17.5403 126.427 18.7443C127.68 19.9484 129.21 20.5342 131.016 20.5342C132.919 20.5342 134.498 19.8508 135.783 18.484L134.042 16.6616C133.212 17.5403 132.203 17.9633 131.032 17.9633C129.991 17.9633 129.128 17.6054 128.412 16.9057C127.729 16.206 127.371 15.2949 127.371 14.2372C127.371 13.1796 127.729 12.2847 128.412 11.5688C129.112 10.8691 129.991 10.5111 131.032 10.5111C132.203 10.5111 133.229 10.9342 134.042 11.8128L135.783 9.99045C134.498 8.62367 132.919 7.94028 131.016 7.94028Z" fill="white"/>
</svg>
